<?xml version="1.0" encoding="UTF-8" standalone="no"?>
<!-- Created with Inkscape (http://www.inkscape.org/) -->

<svg
   xmlns:dc="http://purl.org/dc/elements/1.1/"
   xmlns:cc="http://creativecommons.org/ns#"
   xmlns:rdf="http://www.w3.org/1999/02/22-rdf-syntax-ns#"
   xmlns:svg="http://www.w3.org/2000/svg"
   xmlns="http://www.w3.org/2000/svg"
   xmlns:sodipodi="http://sodipodi.sourceforge.net/DTD/sodipodi-0.dtd"
   xmlns:inkscape="http://www.inkscape.org/namespaces/inkscape"
   width="210mm"
   height="297mm"
   viewBox="0 0 210 297"
   version="1.1"
   id="svg8"
   inkscape:version="0.92.3 (2405546, 2018-03-11)"
   sodipodi:docname="meninos.svg"
   inkscape:export-filename="C:\Users\joaorb\Downloads\leonardo.png"
   inkscape:export-xdpi="96"
   inkscape:export-ydpi="96">
  <defs
     id="defs2">
    <clipPath
       clipPathUnits="userSpaceOnUse"
       id="clipPath4542">
      <rect
         style="fill:#000000;stroke:#000000;stroke-width:0.56499988;stroke-miterlimit:4;stroke-dasharray:none"
         id="rect4544"
         width="88.733482"
         height="44.901279"
         x="22.985178"
         y="154.81261" />
    </clipPath>
    <clipPath
       clipPathUnits="userSpaceOnUse"
       id="clipPath4542-2">
      <rect
         style="fill:#000000;stroke:#000000;stroke-width:0.56499988;stroke-miterlimit:4;stroke-dasharray:none"
         id="rect4544-5"
         width="88.733482"
         height="44.901279"
         x="22.985178"
         y="154.81261" />
    </clipPath>
    <clipPath
       clipPathUnits="userSpaceOnUse"
       id="clipPath4542-2-1">
      <rect
         style="fill:#000000;stroke:#000000;stroke-width:0.56499988;stroke-miterlimit:4;stroke-dasharray:none"
         id="rect4544-5-9"
         width="88.733482"
         height="44.901279"
         x="22.985178"
         y="154.81261" />
    </clipPath>
    <clipPath
       clipPathUnits="userSpaceOnUse"
       id="clipPath4542-5">
      <rect
         style="fill:#000000;stroke:#000000;stroke-width:0.56499988;stroke-miterlimit:4;stroke-dasharray:none"
         id="rect4544-1"
         width="88.733482"
         height="44.901279"
         x="22.985178"
         y="154.81261" />
    </clipPath>
    <clipPath
       clipPathUnits="userSpaceOnUse"
       id="clipPath4542-2-4">
      <rect
         style="fill:#000000;stroke:#000000;stroke-width:0.56499988;stroke-miterlimit:4;stroke-dasharray:none"
         id="rect4544-5-3"
         width="88.733482"
         height="44.901279"
         x="22.985178"
         y="154.81261" />
    </clipPath>
    <clipPath
       clipPathUnits="userSpaceOnUse"
       id="clipPath4542-2-1-8">
      <rect
         style="fill:#000000;stroke:#000000;stroke-width:0.56499988;stroke-miterlimit:4;stroke-dasharray:none"
         id="rect4544-5-9-6"
         width="88.733482"
         height="44.901279"
         x="22.985178"
         y="154.81261" />
    </clipPath>
    <clipPath
       clipPathUnits="userSpaceOnUse"
       id="clipPath4542-51">
      <rect
         style="fill:#000000;stroke:#000000;stroke-width:0.56499988;stroke-miterlimit:4;stroke-dasharray:none"
         id="rect4544-7"
         width="88.733482"
         height="44.901279"
         x="22.985178"
         y="154.81261" />
    </clipPath>
    <clipPath
       clipPathUnits="userSpaceOnUse"
       id="clipPath4542-2-1-6">
      <rect
         style="fill:#000000;stroke:#000000;stroke-width:0.56499988;stroke-miterlimit:4;stroke-dasharray:none"
         id="rect4544-5-9-9"
         width="88.733482"
         height="44.901279"
         x="22.985178"
         y="154.81261" />
    </clipPath>
    <clipPath
       clipPathUnits="userSpaceOnUse"
       id="clipPath4542-2-6">
      <rect
         style="fill:#000000;stroke:#000000;stroke-width:0.56499988;stroke-miterlimit:4;stroke-dasharray:none"
         id="rect4544-5-1"
         width="88.733482"
         height="44.901279"
         x="22.985178"
         y="154.81261" />
    </clipPath>
    <clipPath
       clipPathUnits="userSpaceOnUse"
       id="clipPath4542-3">
      <rect
         style="fill:#000000;stroke:#000000;stroke-width:0.56499988;stroke-miterlimit:4;stroke-dasharray:none"
         id="rect4544-2"
         width="88.733482"
         height="44.901279"
         x="22.985178"
         y="154.81261" />
    </clipPath>
    <clipPath
       clipPathUnits="userSpaceOnUse"
       id="clipPath4542-51-1">
      <rect
         style="fill:#000000;stroke:#000000;stroke-width:0.56499988;stroke-miterlimit:4;stroke-dasharray:none"
         id="rect4544-7-0"
         width="88.733482"
         height="44.901279"
         x="22.985178"
         y="154.81261" />
    </clipPath>
  </defs>
  <sodipodi:namedview
     id="base"
     pagecolor="#ffffff"
     bordercolor="#666666"
     borderopacity="1.0"
     inkscape:pageopacity="0.0"
     inkscape:pageshadow="2"
     inkscape:zoom="0.7"
     inkscape:cx="408.24866"
     inkscape:cy="700.59297"
     inkscape:document-units="mm"
     inkscape:current-layer="layer1"
     showgrid="false"
     inkscape:window-width="1024"
     inkscape:window-height="715"
     inkscape:window-x="-8"
     inkscape:window-y="-8"
     inkscape:window-maximized="1" />
  <metadata
     id="metadata5">
    <rdf:RDF>
      <cc:Work
         rdf:about="">
        <dc:format>image/svg+xml</dc:format>
        <dc:type
           rdf:resource="http://purl.org/dc/dcmitype/StillImage" />
        <dc:title></dc:title>
      </cc:Work>
    </rdf:RDF>
  </metadata>
  <g
     inkscape:label="Layer 1"
     inkscape:groupmode="layer"
     id="layer1">
    <rect
       style="fill:#ffe2c9;fill-opacity:1;stroke:#ffe2c9;stroke-width:0.74058104;stroke-linecap:round;stroke-miterlimit:4;stroke-dasharray:none;stroke-opacity:1"
       id="rect4607"
       width="7.6143966"
       height="14.776555"
       x="49.514416"
       y="125.67712" />
    <rect
       style="fill:#000000;fill-opacity:1;stroke:#000000;stroke-width:0.54462683;stroke-linecap:round;stroke-miterlimit:4;stroke-dasharray:none;stroke-opacity:1"
       id="rect4607-3"
       width="7.8103509"
       height="7.7909617"
       x="49.416439"
       y="125.57913" />
    <path
       style="fill:#ffe2c9;fill-opacity:1;stroke:#000000;stroke-width:0.30623403;stroke-linecap:round;stroke-miterlimit:4;stroke-dasharray:none;stroke-opacity:1"
       d="m 52.00161,106.92996 0.532857,3.50057 -14.173113,11.02547 -1.288808,-4.11478 z"
       id="rect4746"
       inkscape:connector-curvature="0"
       sodipodi:nodetypes="ccccc" />
    <path
       style="fill:#247ba0;fill-opacity:1;stroke:#000000;stroke-width:0.29834223px;stroke-linecap:butt;stroke-linejoin:miter;stroke-opacity:1"
       d="m 39.102404,110.9434 c 4.653828,2.12325 5.919732,6.27925 7.884758,10.01577 3.531415,-5.25571 4.741451,-11.27339 8.310962,-15.76952 z"
       id="path4702"
       inkscape:connector-curvature="0"
       sodipodi:nodetypes="cccc" />
    <path
       style="fill:#ffe2c9;fill-opacity:1;stroke:#000000;stroke-width:0.30623403;stroke-linecap:round;stroke-miterlimit:4;stroke-dasharray:none;stroke-opacity:1"
       d="m 65.641165,106.94016 -0.532857,3.50057 14.173113,11.02547 1.288809,-4.11478 z"
       id="rect4746-5"
       inkscape:connector-curvature="0"
       sodipodi:nodetypes="ccccc" />
    <path
       style="fill:#247ba0;fill-opacity:1;stroke:#000000;stroke-width:0.29834223px;stroke-linecap:butt;stroke-linejoin:miter;stroke-opacity:1"
       d="m 77.566356,110.9434 c -4.653828,2.12325 -5.919732,6.27925 -7.884758,10.01577 -3.531415,-5.25571 -4.741451,-11.27339 -8.310962,-15.76952 z"
       id="path4702-0"
       inkscape:connector-curvature="0"
       sodipodi:nodetypes="cccc" />
    <rect
       style="fill:#ffe2c9;fill-opacity:1;stroke:#ffe2c9;stroke-width:0.74058104;stroke-linecap:round;stroke-miterlimit:4;stroke-dasharray:none;stroke-opacity:1"
       id="rect4607-9"
       width="7.6143966"
       height="14.776555"
       x="59.260933"
       y="125.67712" />
    <rect
       style="fill:#000000;fill-opacity:1;stroke:#000000;stroke-width:0.54462683;stroke-linecap:round;stroke-miterlimit:4;stroke-dasharray:none;stroke-opacity:1"
       id="rect4607-3-6"
       width="7.8103509"
       height="7.7909622"
       x="59.162956"
       y="125.57913" />
    <path
       style="fill:#247ba0;fill-opacity:1;stroke:#000000;stroke-width:0.34265634;stroke-linecap:round;stroke-miterlimit:4;stroke-dasharray:none;stroke-opacity:1"
       d="m 50.489065,103.87215 15.083878,-0.49972 2.610672,21.23781 c -7.077369,5.59057 -13.71092,5.06459 -20.015147,0 z"
       id="rect4573"
       inkscape:connector-curvature="0"
       sodipodi:nodetypes="ccccc" />
    <circle
       style="fill:#ffe2c9;stroke:#000000;stroke-width:1.71058029;stroke-miterlimit:4;stroke-dasharray:none;fill-opacity:1"
       id="path4538-79"
       cx="71.628235"
       cy="200.78296"
       r="19.243404"
       clip-path="url(#clipPath4542-51)"
       transform="matrix(-0.21370177,0,0,-0.19927571,73.483618,147.25726)" />
    <ellipse
       style="fill:#ffe2c9;fill-opacity:1;stroke:#000000;stroke-width:0.16500001;stroke-linecap:round;stroke-miterlimit:4;stroke-dasharray:none;stroke-opacity:1"
       id="path4772"
       cx="34.611404"
       cy="87.46151"
       rx="3.3408689"
       ry="5.6126599" />
    <ellipse
       style="fill:#ffe2c9;fill-opacity:1;stroke:#000000;stroke-width:0.16500001;stroke-linecap:round;stroke-miterlimit:4;stroke-dasharray:none;stroke-opacity:1"
       id="path4772-9"
       cx="84.882286"
       cy="87.46151"
       rx="3.3408689"
       ry="5.6126599" />
    <path
       style="fill:#ffe2c9;stroke:#000000;stroke-width:0.08799184;stroke-miterlimit:4;stroke-dasharray:none;fill-opacity:1"
       d="m 85.392643,82.116101 c 0,5.343129 -2.838384,17.00266 -7.038777,20.620419 -4.588095,3.9517 -11.120098,4.96716 -18.368585,4.96716 -7.575989,0 -14.369286,-0.51643 -18.978453,-4.78451 -3.838035,-3.553986 -6.161633,-13.585476 -6.161633,-18.664912 0,-11.179435 11.255601,-17.034924 25.140086,-17.034923 13.884484,10e-7 25.407362,3.717331 25.407362,14.896766 z"
       id="path3713"
       inkscape:connector-curvature="0"
       sodipodi:nodetypes="sssssss" />
    <ellipse
       style="fill:#000000;stroke:#000000;stroke-width:0.23083192;stroke-miterlimit:4;stroke-dasharray:none"
       id="path4521"
       cx="48.199402"
       cy="84.6371"
       rx="3.6184599"
       ry="3.3741937" />
    <ellipse
       style="fill:#000000;stroke:#000000;stroke-width:0.23083192;stroke-miterlimit:4;stroke-dasharray:none"
       id="path4521-4"
       cx="71.561592"
       cy="84.6371"
       rx="3.6184599"
       ry="3.3741937" />
    <circle
       style="fill:#000000;stroke:#000000;stroke-width:0.56499994;stroke-miterlimit:4;stroke-dasharray:none"
       id="path4538"
       cx="71.628235"
       cy="200.78296"
       r="19.243404"
       clip-path="url(#clipPath4542)"
       transform="matrix(-0.21370177,0,0,-0.19927571,75.292364,138.7055)" />
    <path
       style="fill:none;stroke:#000000;stroke-width:0.89857769;stroke-linecap:round;stroke-linejoin:miter;stroke-miterlimit:4;stroke-dasharray:none;stroke-opacity:1"
       d="m 42.399793,77.874654 c 0,0 3.185983,-1.889766 6.094711,-1.833313 2.908729,0.05645 5.504901,2.016646 5.504901,2.016646"
       id="path4546"
       inkscape:connector-curvature="0"
       sodipodi:nodetypes="czc" />
    <path
       style="fill:none;stroke:#000000;stroke-width:0.89857769;stroke-linecap:round;stroke-linejoin:miter;stroke-miterlimit:4;stroke-dasharray:none;stroke-opacity:1"
       d="m 65.761952,77.874654 c 0,0 3.186,-1.889766 6.094745,-1.833313 2.908737,0.05645 5.50493,2.016646 5.50493,2.016646"
       id="path4546-7"
       inkscape:connector-curvature="0"
       sodipodi:nodetypes="czc" />
    <circle
       style="fill:#000000;stroke:#000000;stroke-width:0.56499994;stroke-miterlimit:4;stroke-dasharray:none"
       id="path4538-7"
       cx="71.628235"
       cy="200.78296"
       r="19.243404"
       clip-path="url(#clipPath4542-2)"
       transform="matrix(-0.24906064,0,0,0.31532923,80.907905,78.493547)" />
    <path
       style="fill:none;stroke:#000000;stroke-width:0.20354094px;stroke-linecap:butt;stroke-linejoin:miter;stroke-opacity:1"
       d="m 58.260984,141.53436 9.614294,-0.15334"
       id="path4666"
       inkscape:connector-curvature="0" />
    <circle
       style="fill:#000000;stroke:#000000;stroke-width:0.56499994;stroke-miterlimit:4;stroke-dasharray:none"
       id="path4538-7-2"
       cx="71.628235"
       cy="200.78296"
       r="19.243404"
       clip-path="url(#clipPath4542-2-1)"
       transform="matrix(-0.24906063,0,0,0.31532922,71.16139,78.493549)" />
    <path
       style="fill:none;stroke:#000000;stroke-width:0.20354094px;stroke-linecap:butt;stroke-linejoin:miter;stroke-opacity:1"
       d="m 48.51447,141.53436 9.614294,-0.15334"
       id="path4666-9"
       inkscape:connector-curvature="0" />
    <path
       style="fill:#ffe2c9;fill-opacity:1;stroke:#000000;stroke-width:0.16500001;stroke-linecap:round;stroke-miterlimit:4;stroke-dasharray:none;stroke-opacity:1"
       d="m 40.160382,115.18376 a 3.7797618,2.1733632 47.098245 0 0 -1.057978,-0.007 3.0238096,6.4255951 10.445344 0 0 -3.686145,5.77746 3.0238096,6.4255951 10.445344 0 0 1.808566,6.86714 3.0238096,6.4255951 10.445344 0 0 4.138906,-5.77071 3.0238096,6.4255951 10.445344 0 0 0.131859,-0.90053 3.7797618,2.1733632 47.098245 0 0 2.17981,-0.12624 3.7797618,2.1733632 47.098245 0 0 -0.980789,-4.2485 3.7797618,2.1733632 47.098245 0 0 -2.534229,-1.59118 z"
       id="path4726"
       inkscape:connector-curvature="0"
       inkscape:transform-center-x="1.4523537"
       inkscape:transform-center-y="5.0501717" />
    <path
       style="fill:#ffe2c9;fill-opacity:1;stroke:#000000;stroke-width:0.16500001;stroke-linecap:round;stroke-miterlimit:4;stroke-dasharray:none;stroke-opacity:1"
       d="m 77.792554,115.18376 a 2.1733632,3.7797618 42.901755 0 1 1.057978,-0.007 6.4255952,3.0238097 79.554656 0 1 3.686145,5.77746 6.4255952,3.0238097 79.554656 0 1 -1.808566,6.86714 6.4255952,3.0238097 79.554656 0 1 -4.138906,-5.77071 6.4255952,3.0238097 79.554656 0 1 -0.131859,-0.90053 2.1733632,3.7797618 42.901755 0 1 -2.17981,-0.12624 2.1733632,3.7797618 42.901755 0 1 0.980789,-4.2485 2.1733632,3.7797618 42.901755 0 1 2.534229,-1.59118 z"
       id="path4726-5"
       inkscape:connector-curvature="0"
       inkscape:transform-center-x="-1.4523534"
       inkscape:transform-center-y="5.0501717" />
    <circle
       style="fill:#ffffff;fill-opacity:1;stroke:#ffffff;stroke-width:0.16500001;stroke-linecap:round;stroke-miterlimit:4;stroke-dasharray:none;stroke-opacity:1"
       id="path4789"
       cx="73.100586"
       cy="84.010414"
       r="0.75595242" />
    <circle
       style="fill:#ffffff;fill-opacity:1;stroke:#ffffff;stroke-width:0.16500001;stroke-linecap:round;stroke-miterlimit:4;stroke-dasharray:none;stroke-opacity:1"
       id="path4789-5"
       cx="46.6119"
       cy="84.010414"
       r="0.75595242" />
    <path
       style="fill:#000000;fill-opacity:1;stroke:#000000;stroke-width:0.35299999;stroke-linecap:round;stroke-miterlimit:4;stroke-dasharray:none;stroke-opacity:1"
       d="m 58.307492,46.627863 a 3.4017854,3.2127975 0 0 0 -3.214791,2.172994 3.0238096,3.7797618 0 0 0 -2.076875,-1.038696 3.0238096,3.7797618 0 0 0 -3.023587,3.779612 3.0238096,3.7797618 0 0 0 0.08992,0.89762 3.2127975,3.4017854 0 0 0 -2.168861,-0.89762 3.2127975,3.4017854 0 0 0 -2.584855,1.389063 3.4017854,3.2127975 0 0 0 -1.519285,1.739945 3.0238096,3.7797618 0 0 0 -2.076876,-1.038696 3.0238096,3.7797618 0 0 0 -3.02359,3.779615 3.0238096,3.7797618 0 0 0 0.08992,0.89762 3.2127975,3.4017854 0 0 0 -2.168861,-0.89762 3.2127975,3.4017854 0 0 0 -3.212724,3.401859 3.2127975,3.4017854 0 0 0 1.466061,2.85409 3.2127975,3.4017854 56.503114 0 0 -0.494543,2.605526 3.7797618,3.0238096 56.503114 0 0 -2.305285,0.280085 3.7797618,3.0238096 56.503114 0 0 -0.435634,4.820894 3.7797618,3.0238096 56.503114 0 0 0.570508,0.698667 3.4017854,3.2127975 56.503114 0 0 -2.304251,0.44855 3.4017854,3.2127975 56.503114 0 0 -0.801503,4.610055 3.4017854,3.2127975 56.503114 0 0 4.556829,1.063501 3.4017854,3.2127975 56.503114 0 0 1.026292,-1.147217 3.2127975,3.7797618 56.503114 0 0 4.271574,-0.09302 3.2127975,3.7797618 56.503114 0 0 1.54926,-1.821077 4.317149,3.3722082 56.503114 0 0 3.785817,0.294555 4.317149,3.3722082 56.503114 0 0 1.072284,-4.117578 3.2127975,3.7797618 81.375038 0 0 1.57148,-0.862481 4.317149,3.3722082 81.375038 0 0 3.310911,1.859836 4.317149,3.3722082 81.375038 0 0 1.760614,-1.021644 3.2127975,3.4017854 0 0 0 0.489895,0.04238 3.2127975,3.4017854 0 0 0 1.489313,-0.390157 3.7797618,3.2127975 0 0 0 3.613216,2.279965 3.7797618,3.2127975 0 0 0 2.297017,-0.664044 3.3722082,4.317149 0 0 0 2.99465,2.335258 3.3722082,4.317149 0 0 0 3.372405,-4.317048 3.3722082,4.317149 0 0 0 -0.02119,-0.441317 3.3722082,4.317149 0 0 0 1.829861,0.783932 3.2127975,3.4017854 0 0 0 2.40864,1.154451 3.2127975,3.4017854 0 0 0 1.489316,-0.390158 3.7797618,3.2127975 0 0 0 3.613213,2.279965 3.7797618,3.2127975 0 0 0 2.29702,-0.664043 3.3722082,4.317149 0 0 0 2.994647,2.335257 3.3722082,4.317149 0 0 0 3.372405,-4.317047 3.3722082,4.317149 0 0 0 -0.02119,-0.441317 3.3722082,4.317149 0 0 0 1.940449,0.789614 3.3722082,4.317149 0 0 0 3.372406,-4.317047 3.3722082,4.317149 0 0 0 -3.372406,-4.317566 3.3722082,4.317149 0 0 0 -1.901692,0.757576 3.4017854,3.2127975 0 0 0 0.01189,-0.220141 3.4017854,3.2127975 0 0 0 -0.381373,-1.472261 3.3722082,4.317149 0 0 0 0.665075,-2.565736 3.3722082,4.317149 0 0 0 -3.357416,-4.31705 3.3722082,4.317149 0 0 0 0.0072,-0.268716 3.3722082,4.317149 0 0 0 -3.372403,-4.317566 3.3722082,4.317149 0 0 0 -1.901692,0.757576 3.4017854,3.2127975 0 0 0 0.01189,-0.220141 3.4017854,3.2127975 0 0 0 -3.401343,-3.212724 h -5.16e-4 a 3.4017854,3.2127975 0 0 0 -3.214791,2.172993 3.0238096,3.7797618 0 0 0 -2.076876,-1.038696 3.0238096,3.7797618 0 0 0 -1.912027,0.855245 3.3722082,4.317149 0 0 0 -1.753899,-0.634587 3.3722082,4.317149 0 0 0 -1.901693,0.757578 3.4017854,3.2127975 0 0 0 0.01188,-0.220141 3.4017854,3.2127975 0 0 0 -3.401859,-3.212724 z m -3.017388,7.400581 a 3.2127975,3.7797618 0 0 0 0.04806,0.463537 3.7797618,3.2127975 0 0 0 -0.27905,-0.168982 3.0238096,3.7797618 0 0 0 0.230991,-0.294555 z m 4.61109,13.164571 a 3.2127975,3.7797618 0 0 0 0.03101,0.282154 3.7797618,3.2127975 0 0 0 -0.279053,-0.168984 3.0238096,3.7797618 0 0 0 0.04186,-0.05271 3.2127975,3.4017854 0 0 0 0.20619,-0.06046 z m 17.966862,0.559655 a 3.2127975,3.7797618 0 0 0 0.04806,0.463539 3.7797618,3.2127975 0 0 0 -0.279054,-0.168981 3.0238096,3.7797618 0 0 0 0.230994,-0.294558 z m -40.43009,2.770891 a 3.7797618,3.2127975 56.503114 0 0 0.296106,0.360185 3.2127975,3.7797618 56.503114 0 0 -0.326078,0.01292 3.7797618,3.0238096 56.503114 0 0 0.02997,-0.373105 z"
       id="path1002"
       inkscape:connector-curvature="0" />
    <ellipse
       style="fill:#000000;fill-opacity:1;stroke:#000000;stroke-width:0.3058731;stroke-linecap:round;stroke-miterlimit:4;stroke-dasharray:none;stroke-opacity:1"
       id="path1125"
       cx="33.340214"
       cy="78.753494"
       rx="3.7914762"
       ry="2.92448" />
    <ellipse
       style="fill:#000000;fill-opacity:1;stroke:#000000;stroke-width:0.3058731;stroke-linecap:round;stroke-miterlimit:4;stroke-dasharray:none;stroke-opacity:1"
       id="path1125-6"
       cx="84.666664"
       cy="73.238091"
       rx="3.7914765"
       ry="2.92448" />
    <ellipse
       style="fill:#000000;fill-opacity:1;stroke:#000000;stroke-width:0.3058731;stroke-linecap:round;stroke-miterlimit:4;stroke-dasharray:none;stroke-opacity:1"
       id="path1125-7"
       cx="85.422615"
       cy="76.639877"
       rx="3.7914765"
       ry="2.92448" />
    <rect
       style="fill:#be794a;fill-opacity:1;stroke:#be794a;stroke-width:0.74058104;stroke-linecap:round;stroke-miterlimit:4;stroke-dasharray:none;stroke-opacity:1"
       id="rect4607-91"
       width="7.6143966"
       height="14.776555"
       x="120.88112"
       y="126.41611" />
    <rect
       style="fill:#000000;fill-opacity:1;stroke:#000000;stroke-width:0.54462683;stroke-linecap:round;stroke-miterlimit:4;stroke-dasharray:none;stroke-opacity:1"
       id="rect4607-3-3"
       width="7.8103509"
       height="7.7909622"
       x="120.78314"
       y="126.31812" />
    <path
       style="fill:#be794a;fill-opacity:1;stroke:#000000;stroke-width:0.30623403;stroke-linecap:round;stroke-miterlimit:4;stroke-dasharray:none;stroke-opacity:1"
       d="m 123.36831,107.66896 0.53286,3.50057 -14.17311,11.02547 -1.28881,-4.11478 z"
       id="rect4746-0"
       inkscape:connector-curvature="0"
       sodipodi:nodetypes="ccccc" />
    <path
       style="fill:#247ba0;fill-opacity:1;stroke:#000000;stroke-width:0.29834223px;stroke-linecap:butt;stroke-linejoin:miter;stroke-opacity:1"
       d="m 110.46911,111.6824 c 4.65383,2.12325 5.91973,6.27925 7.88476,10.01577 3.53141,-5.25571 4.74145,-11.27339 8.31096,-15.76952 z"
       id="path4702-3"
       inkscape:connector-curvature="0"
       sodipodi:nodetypes="cccc" />
    <path
       style="fill:#be794a;fill-opacity:1;stroke:#000000;stroke-width:0.30623403;stroke-linecap:round;stroke-miterlimit:4;stroke-dasharray:none;stroke-opacity:1"
       d="m 137.00787,107.67916 -0.53286,3.50057 14.17311,11.02547 1.28881,-4.11478 z"
       id="rect4746-5-5"
       inkscape:connector-curvature="0"
       sodipodi:nodetypes="ccccc" />
    <path
       style="fill:#247ba0;fill-opacity:1;stroke:#000000;stroke-width:0.29834223px;stroke-linecap:butt;stroke-linejoin:miter;stroke-opacity:1"
       d="m 148.93306,111.6824 c -4.65383,2.12325 -5.91973,6.27925 -7.88476,10.01577 -3.53141,-5.25571 -4.74145,-11.27339 -8.31096,-15.76952 z"
       id="path4702-0-2"
       inkscape:connector-curvature="0"
       sodipodi:nodetypes="cccc" />
    <rect
       style="fill:#be794a;fill-opacity:1;stroke:#be794a;stroke-width:0.74058104;stroke-linecap:round;stroke-miterlimit:4;stroke-dasharray:none;stroke-opacity:1"
       id="rect4607-9-5"
       width="7.6143966"
       height="14.776555"
       x="130.62762"
       y="126.41611" />
    <rect
       style="fill:#000000;fill-opacity:1;stroke:#000000;stroke-width:0.54462683;stroke-linecap:round;stroke-miterlimit:4;stroke-dasharray:none;stroke-opacity:1"
       id="rect4607-3-6-0"
       width="7.8103509"
       height="7.7909622"
       x="130.52965"
       y="126.31813" />
    <path
       style="fill:#247ba0;fill-opacity:1;stroke:#000000;stroke-width:0.34265634;stroke-linecap:round;stroke-miterlimit:4;stroke-dasharray:none;stroke-opacity:1"
       d="m 121.85577,104.61115 15.08388,-0.49972 2.61067,21.23781 c -7.07737,5.59057 -13.71092,5.06459 -20.01515,0 z"
       id="rect4573-1"
       inkscape:connector-curvature="0"
       sodipodi:nodetypes="ccccc" />
    <circle
       style="fill:#be794a;fill-opacity:1;stroke:#000000;stroke-width:1.71058035;stroke-miterlimit:4;stroke-dasharray:none"
       id="path4538-79-0"
       cx="71.628235"
       cy="200.78296"
       r="19.243404"
       clip-path="url(#clipPath4542-51-1)"
       transform="matrix(-0.21370177,0,0,-0.19927571,144.85032,147.99626)" />
    <ellipse
       style="fill:#be794a;fill-opacity:1;stroke:#000000;stroke-width:0.16500001;stroke-linecap:round;stroke-miterlimit:4;stroke-dasharray:none;stroke-opacity:1"
       id="path4772-4"
       cx="105.9781"
       cy="88.200508"
       rx="3.3408689"
       ry="5.6126599" />
    <ellipse
       style="fill:#be794a;fill-opacity:1;stroke:#000000;stroke-width:0.16500001;stroke-linecap:round;stroke-miterlimit:4;stroke-dasharray:none;stroke-opacity:1"
       id="path4772-9-4"
       cx="156.24899"
       cy="88.200508"
       rx="3.3408689"
       ry="5.6126599" />
    <path
       style="fill:#be794a;stroke:#000000;stroke-width:0.165;stroke-miterlimit:4;stroke-dasharray:none;fill-opacity:1"
       d="m 156.75935,82.8551 c 0,5.34313 -2.83839,17.00266 -7.03878,20.62042 -4.5881,3.9517 -11.1201,4.96716 -18.36858,4.96716 -7.57599,0 -14.36929,-0.51643 -18.97846,-4.78451 -3.83803,-3.55399 -6.16163,-13.58548 -6.16163,-18.66492 0,-11.17943 11.2556,-17.03492 25.14009,-17.03492 13.88448,0 25.40736,3.71733 25.40736,14.89677 z"
       id="path3713-6"
       inkscape:connector-curvature="0"
       sodipodi:nodetypes="sssssss" />
    <ellipse
       style="fill:#000000;stroke:#000000;stroke-width:0.23083192;stroke-miterlimit:4;stroke-dasharray:none"
       id="path4521-3"
       cx="119.5661"
       cy="85.376091"
       rx="3.6184599"
       ry="3.3741937" />
    <ellipse
       style="fill:#000000;stroke:#000000;stroke-width:0.23083192;stroke-miterlimit:4;stroke-dasharray:none"
       id="path4521-4-0"
       cx="142.9283"
       cy="85.376091"
       rx="3.6184599"
       ry="3.3741937" />
    <circle
       style="fill:#000000;stroke:#000000;stroke-width:0.56499994;stroke-miterlimit:4;stroke-dasharray:none"
       id="path4538-5"
       cx="71.628235"
       cy="200.78296"
       r="19.243404"
       clip-path="url(#clipPath4542-3)"
       transform="matrix(-0.21370177,0,0,-0.19927571,146.65906,139.4445)" />
    <path
       style="fill:none;stroke:#000000;stroke-width:0.89857769;stroke-linecap:round;stroke-linejoin:miter;stroke-miterlimit:4;stroke-dasharray:none;stroke-opacity:1"
       d="m 113.7665,78.61365 c 0,0 3.18598,-1.88977 6.09471,-1.83331 2.90873,0.0565 5.5049,2.01664 5.5049,2.01664"
       id="path4546-9"
       inkscape:connector-curvature="0"
       sodipodi:nodetypes="czc" />
    <path
       style="fill:none;stroke:#000000;stroke-width:0.89857769;stroke-linecap:round;stroke-linejoin:miter;stroke-miterlimit:4;stroke-dasharray:none;stroke-opacity:1"
       d="m 137.12865,78.61365 c 0,0 3.18601,-1.88977 6.09475,-1.83331 2.90874,0.0565 5.50493,2.01664 5.50493,2.01664"
       id="path4546-7-8"
       inkscape:connector-curvature="0"
       sodipodi:nodetypes="czc" />
    <circle
       style="fill:#000000;stroke:#000000;stroke-width:0.56499994;stroke-miterlimit:4;stroke-dasharray:none"
       id="path4538-7-5"
       cx="71.628235"
       cy="200.78296"
       r="19.243404"
       clip-path="url(#clipPath4542-2-6)"
       transform="matrix(-0.24906064,0,0,0.31532923,152.27461,79.23254)" />
    <path
       style="fill:none;stroke:#000000;stroke-width:0.20354094px;stroke-linecap:butt;stroke-linejoin:miter;stroke-opacity:1"
       d="m 129.62769,142.27336 9.61429,-0.15334"
       id="path4666-6"
       inkscape:connector-curvature="0" />
    <circle
       style="fill:#000000;stroke:#000000;stroke-width:0.56499994;stroke-miterlimit:4;stroke-dasharray:none"
       id="path4538-7-2-9"
       cx="71.628235"
       cy="200.78296"
       r="19.243404"
       clip-path="url(#clipPath4542-2-1-6)"
       transform="matrix(-0.24906063,0,0,0.31532923,142.52809,79.23254)" />
    <path
       style="fill:none;stroke:#000000;stroke-width:0.20354094px;stroke-linecap:butt;stroke-linejoin:miter;stroke-opacity:1"
       d="m 119.88117,142.27336 9.6143,-0.15334"
       id="path4666-9-1"
       inkscape:connector-curvature="0" />
    <path
       style="fill:#be794a;fill-opacity:1;stroke:#000000;stroke-width:0.165;stroke-linecap:round;stroke-miterlimit:4;stroke-dasharray:none;stroke-opacity:1"
       d="m 111.52709,115.92276 a 3.7797618,2.1733632 47.098245 0 0 -1.05798,-0.007 3.0238097,6.4255952 10.445344 0 0 -3.68615,5.77746 3.0238097,6.4255952 10.445344 0 0 1.80857,6.86714 3.0238097,6.4255952 10.445344 0 0 4.1389,-5.77071 3.0238097,6.4255952 10.445344 0 0 0.13186,-0.90053 3.7797618,2.1733632 47.098245 0 0 2.17981,-0.12624 3.7797618,2.1733632 47.098245 0 0 -0.98079,-4.2485 3.7797618,2.1733632 47.098245 0 0 -2.53422,-1.59118 z"
       id="path4726-6"
       inkscape:connector-curvature="0"
       inkscape:transform-center-x="1.4523537"
       inkscape:transform-center-y="5.0501717" />
    <path
       style="fill:#be794a;fill-opacity:1;stroke:#000000;stroke-width:0.16500001;stroke-linecap:round;stroke-miterlimit:4;stroke-dasharray:none;stroke-opacity:1"
       d="m 149.15926,115.92276 a 2.1733632,3.7797618 42.901755 0 1 1.05797,-0.007 6.4255952,3.0238097 79.554656 0 1 3.68615,5.77746 6.4255952,3.0238097 79.554656 0 1 -1.80856,6.86714 6.4255952,3.0238097 79.554656 0 1 -4.13891,-5.77071 6.4255952,3.0238097 79.554656 0 1 -0.13186,-0.90053 2.1733632,3.7797618 42.901755 0 1 -2.17981,-0.12624 2.1733632,3.7797618 42.901755 0 1 0.98079,-4.2485 2.1733632,3.7797618 42.901755 0 1 2.53423,-1.59118 z"
       id="path4726-5-2"
       inkscape:connector-curvature="0"
       inkscape:transform-center-x="-1.4523534"
       inkscape:transform-center-y="5.0501717" />
    <circle
       style="fill:#ffffff;fill-opacity:1;stroke:#ffffff;stroke-width:0.16500001;stroke-linecap:round;stroke-miterlimit:4;stroke-dasharray:none;stroke-opacity:1"
       id="path4789-1"
       cx="144.46729"
       cy="84.749413"
       r="0.75595242" />
    <circle
       style="fill:#ffffff;fill-opacity:1;stroke:#ffffff;stroke-width:0.16500001;stroke-linecap:round;stroke-miterlimit:4;stroke-dasharray:none;stroke-opacity:1"
       id="path4789-5-5"
       cx="117.9786"
       cy="84.749413"
       r="0.75595242" />
    <path
       style="fill:#000000;fill-opacity:1;stroke:#000000;stroke-width:0.35299999;stroke-linecap:round;stroke-miterlimit:4;stroke-dasharray:none;stroke-opacity:1"
       d="m 129.6742,47.36686 a 3.4017855,3.2127976 0 0 0 -3.21479,2.17299 3.0238097,3.7797618 0 0 0 -2.07688,-1.03869 3.0238097,3.7797618 0 0 0 -3.02359,3.77961 3.0238097,3.7797618 0 0 0 0.0899,0.89762 3.2127976,3.4017855 0 0 0 -2.16886,-0.89762 3.2127976,3.4017855 0 0 0 -2.58485,1.38906 3.4017855,3.2127976 0 0 0 -1.51929,1.73995 3.0238097,3.7797618 0 0 0 -2.07688,-1.0387 3.0238097,3.7797618 0 0 0 -3.02359,3.77962 3.0238097,3.7797618 0 0 0 0.0899,0.89762 3.2127976,3.4017855 0 0 0 -2.16886,-0.89762 3.2127976,3.4017855 0 0 0 -3.21272,3.40186 3.2127976,3.4017855 0 0 0 1.46606,2.85409 3.2127976,3.4017855 56.503114 0 0 -0.49454,2.60552 3.7797618,3.0238097 56.503114 0 0 -2.30529,0.28009 3.7797618,3.0238097 56.503114 0 0 -0.43563,4.82089 3.7797618,3.0238097 56.503114 0 0 0.5705,0.69867 3.4017855,3.2127976 56.503114 0 0 -2.30425,0.44855 3.4017855,3.2127976 56.503114 0 0 -0.8015,4.61005 3.4017855,3.2127976 56.503114 0 0 4.55683,1.0635 3.4017855,3.2127976 56.503114 0 0 1.02629,-1.14721 3.2127976,3.7797618 56.503114 0 0 4.27158,-0.093 3.2127976,3.7797618 56.503114 0 0 1.54926,-1.82108 4.3171491,3.3722082 56.503114 0 0 3.78582,0.29455 4.3171491,3.3722082 56.503114 0 0 1.07228,-4.11757 3.2127976,3.7797618 81.375038 0 0 1.57148,-0.86248 4.3171491,3.3722082 81.375038 0 0 3.31091,1.85983 4.3171491,3.3722082 81.375038 0 0 1.76061,-1.02164 3.2127976,3.4017855 0 0 0 0.4899,0.0424 3.2127976,3.4017855 0 0 0 1.48931,-0.39016 3.7797618,3.2127976 0 0 0 3.61322,2.27997 3.7797618,3.2127976 0 0 0 2.29702,-0.66405 3.3722082,4.3171491 0 0 0 2.99465,2.33526 3.3722082,4.3171491 0 0 0 3.3724,-4.31705 3.3722082,4.3171491 0 0 0 -0.0212,-0.44132 3.3722082,4.3171491 0 0 0 1.82986,0.78394 3.2127976,3.4017855 0 0 0 2.40864,1.15445 3.2127976,3.4017855 0 0 0 1.48932,-0.39016 3.7797618,3.2127976 0 0 0 3.61321,2.27997 3.7797618,3.2127976 0 0 0 2.29702,-0.66405 3.3722082,4.3171491 0 0 0 2.99465,2.33526 3.3722082,4.3171491 0 0 0 3.3724,-4.31705 3.3722082,4.3171491 0 0 0 -0.0212,-0.44132 3.3722082,4.3171491 0 0 0 1.94045,0.78962 3.3722082,4.3171491 0 0 0 3.37241,-4.31705 3.3722082,4.3171491 0 0 0 -3.37241,-4.31756 3.3722082,4.3171491 0 0 0 -1.90169,0.75757 3.4017855,3.2127976 0 0 0 0.0119,-0.22014 3.4017855,3.2127976 0 0 0 -0.38137,-1.47226 3.3722082,4.3171491 0 0 0 0.66507,-2.56574 3.3722082,4.3171491 0 0 0 -3.35742,-4.31705 3.3722082,4.3171491 0 0 0 0.007,-0.26871 3.3722082,4.3171491 0 0 0 -3.3724,-4.31757 3.3722082,4.3171491 0 0 0 -1.90169,0.75758 3.4017855,3.2127976 0 0 0 0.0119,-0.22014 3.4017855,3.2127976 0 0 0 -3.40134,-3.21273 h -5.3e-4 a 3.4017855,3.2127976 0 0 0 -3.21479,2.173 3.0238097,3.7797618 0 0 0 -2.07688,-1.0387 3.0238097,3.7797618 0 0 0 -1.91203,0.85524 3.3722082,4.3171491 0 0 0 -1.7539,-0.63458 3.3722082,4.3171491 0 0 0 -1.90169,0.75758 3.4017855,3.2127976 0 0 0 0.0119,-0.22015 3.4017855,3.2127976 0 0 0 -3.40186,-3.21272 z m -3.01739,7.40058 a 3.2127976,3.7797618 0 0 0 0.0481,0.46354 3.7797618,3.2127976 0 0 0 -0.27905,-0.16898 3.0238097,3.7797618 0 0 0 0.23099,-0.29456 z m 4.61109,13.16457 a 3.2127976,3.7797618 0 0 0 0.031,0.28216 3.7797618,3.2127976 0 0 0 -0.27906,-0.16899 3.0238097,3.7797618 0 0 0 0.0419,-0.0527 3.2127976,3.4017855 0 0 0 0.20619,-0.0605 z m 17.96686,0.55966 a 3.2127976,3.7797618 0 0 0 0.0481,0.46354 3.7797618,3.2127976 0 0 0 -0.27905,-0.16899 3.0238097,3.7797618 0 0 0 0.23099,-0.29455 z m -40.43009,2.77089 a 3.7797618,3.2127976 56.503114 0 0 0.2961,0.36018 3.2127976,3.7797618 56.503114 0 0 -0.32607,0.0129 3.7797618,3.0238097 56.503114 0 0 0.03,-0.3731 z"
       id="path1002-7"
       inkscape:connector-curvature="0" />
    <ellipse
       style="fill:#000000;fill-opacity:1;stroke:#000000;stroke-width:0.3058731;stroke-linecap:round;stroke-miterlimit:4;stroke-dasharray:none;stroke-opacity:1"
       id="path1125-0"
       cx="104.70692"
       cy="79.492485"
       rx="3.7914765"
       ry="2.92448" />
    <ellipse
       style="fill:#000000;fill-opacity:1;stroke:#000000;stroke-width:0.3058731;stroke-linecap:round;stroke-miterlimit:4;stroke-dasharray:none;stroke-opacity:1"
       id="path1125-6-0"
       cx="156.03337"
       cy="73.977089"
       rx="3.7914767"
       ry="2.92448" />
    <ellipse
       style="fill:#000000;fill-opacity:1;stroke:#000000;stroke-width:0.3058731;stroke-linecap:round;stroke-miterlimit:4;stroke-dasharray:none;stroke-opacity:1"
       id="path1125-7-1"
       cx="156.78932"
       cy="77.378868"
       rx="3.7914767"
       ry="2.92448" />
  </g>
</svg>
